<?xml version="1.0" encoding="UTF-8" standalone="no"?>
<!-- Created with Inkscape (http://www.inkscape.org/) -->

<svg
   width="338.66666mm"
   height="190.5mm"
   viewBox="0 0 338.66668 190.5"
   version="1.1"
   id="svg5"
   inkscape:version="1.1 (c4e8f9e, 2021-05-24)"
   sodipodi:docname="vr-map-plain.svg"
   inkscape:export-filename="/Users/khofstadter/Desktop/vr-map-plain.png"
   inkscape:export-xdpi="96"
   inkscape:export-ydpi="96"
   xmlns:inkscape="http://www.inkscape.org/namespaces/inkscape"
   xmlns:sodipodi="http://sodipodi.sourceforge.net/DTD/sodipodi-0.dtd"
   xmlns="http://www.w3.org/2000/svg"
   xmlns:svg="http://www.w3.org/2000/svg">
  <sodipodi:namedview
     id="namedview7"
     pagecolor="#ffffff"
     bordercolor="#666666"
     borderopacity="1.0"
     inkscape:pageshadow="2"
     inkscape:pageopacity="0.0"
     inkscape:pagecheckerboard="0"
     inkscape:document-units="mm"
     showgrid="false"
     units="mm"
     width="1280px"
     showguides="true"
     inkscape:guide-bbox="true"
     inkscape:zoom="0.87385989"
     inkscape:cx="605.93238"
     inkscape:cy="430.8471"
     inkscape:window-width="1920"
     inkscape:window-height="1081"
     inkscape:window-x="0"
     inkscape:window-y="25"
     inkscape:window-maximized="0"
     inkscape:current-layer="layer1">
    <sodipodi:guide
       position="169.08248,95.242268"
       orientation="1,0"
       id="guide6464" />
    <sodipodi:guide
       position="169.08248,95.242268"
       orientation="0,-1"
       id="guide6466" />
  </sodipodi:namedview>
  <defs
     id="defs2">
    <marker
       style="overflow:visible"
       id="marker1317"
       refX="0.0"
       refY="0.0"
       orient="auto"
       inkscape:stockid="Arrow2Sstart"
       inkscape:isstock="true">
      <path
         transform="scale(0.3) translate(-2.3,0)"
         d="M 8.7185878,4.0337352 L -2.2072895,0.016013256 L 8.7185884,-4.0017078 C 6.9730900,-1.6296469 6.9831476,1.6157441 8.7185878,4.0337352 z "
         style="fill-rule:evenodd;fill:context-stroke;stroke-width:0.62500000;stroke-linejoin:round"
         id="path1315" />
    </marker>
    <marker
       style="overflow:visible"
       id="Arrow2Sstart"
       refX="0.0"
       refY="0.0"
       orient="auto"
       inkscape:stockid="Arrow2Sstart"
       inkscape:isstock="true">
      <path
         transform="scale(0.3) translate(-2.3,0)"
         d="M 8.7185878,4.0337352 L -2.2072895,0.016013256 L 8.7185884,-4.0017078 C 6.9730900,-1.6296469 6.9831476,1.6157441 8.7185878,4.0337352 z "
         style="fill-rule:evenodd;fill:context-stroke;stroke-width:0.62500000;stroke-linejoin:round"
         id="path1059" />
    </marker>
    <marker
       style="overflow:visible"
       id="marker1299"
       refX="0.0"
       refY="0.0"
       orient="auto"
       inkscape:stockid="Arrow2Mstart"
       inkscape:isstock="true">
      <path
         transform="scale(0.6) translate(0,0)"
         d="M 8.7185878,4.0337352 L -2.2072895,0.016013256 L 8.7185884,-4.0017078 C 6.9730900,-1.6296469 6.9831476,1.6157441 8.7185878,4.0337352 z "
         style="fill-rule:evenodd;fill:context-stroke;stroke-width:0.62500000;stroke-linejoin:round"
         id="path1297" />
    </marker>
    <marker
       style="overflow:visible"
       id="Arrow2Mstart"
       refX="0.0"
       refY="0.0"
       orient="auto"
       inkscape:stockid="Arrow2Mstart"
       inkscape:isstock="true">
      <path
         transform="scale(0.6) translate(0,0)"
         d="M 8.7185878,4.0337352 L -2.2072895,0.016013256 L 8.7185884,-4.0017078 C 6.9730900,-1.6296469 6.9831476,1.6157441 8.7185878,4.0337352 z "
         style="fill-rule:evenodd;fill:context-stroke;stroke-width:0.62500000;stroke-linejoin:round"
         id="path1053" />
    </marker>
    <marker
       style="overflow:visible;"
       id="marker7931"
       refX="0.0"
       refY="0.0"
       orient="auto"
       inkscape:stockid="Arrow2Send"
       inkscape:isstock="true">
      <path
         transform="scale(0.3) rotate(180) translate(-2.3,0)"
         d="M 8.7185878,4.0337352 L -2.2072895,0.016013256 L 8.7185884,-4.0017078 C 6.9730900,-1.6296469 6.9831476,1.6157441 8.7185878,4.0337352 z "
         style="fill-rule:evenodd;fill:context-stroke;stroke-width:0.62500000;stroke-linejoin:round;"
         id="path7929" />
    </marker>
    <marker
       style="overflow:visible;"
       id="Arrow2Send"
       refX="0.0"
       refY="0.0"
       orient="auto"
       inkscape:stockid="Arrow2Send"
       inkscape:isstock="true">
      <path
         transform="scale(0.3) rotate(180) translate(-2.3,0)"
         d="M 8.7185878,4.0337352 L -2.2072895,0.016013256 L 8.7185884,-4.0017078 C 6.9730900,-1.6296469 6.9831476,1.6157441 8.7185878,4.0337352 z "
         style="fill-rule:evenodd;fill:context-stroke;stroke-width:0.62500000;stroke-linejoin:round;"
         id="path7625" />
    </marker>
    <marker
       style="overflow:visible;"
       id="marker7878"
       refX="0.0"
       refY="0.0"
       orient="auto"
       inkscape:stockid="Arrow2Mend"
       inkscape:isstock="true">
      <path
         transform="scale(0.6) rotate(180) translate(0,0)"
         d="M 8.7185878,4.0337352 L -2.2072895,0.016013256 L 8.7185884,-4.0017078 C 6.9730900,-1.6296469 6.9831476,1.6157441 8.7185878,4.0337352 z "
         style="fill-rule:evenodd;fill:context-stroke;stroke-width:0.62500000;stroke-linejoin:round;"
         id="path7876" />
    </marker>
    <marker
       style="overflow:visible;"
       id="Arrow2Mend"
       refX="0.0"
       refY="0.0"
       orient="auto"
       inkscape:stockid="Arrow2Mend"
       inkscape:isstock="true">
      <path
         transform="scale(0.6) rotate(180) translate(0,0)"
         d="M 8.7185878,4.0337352 L -2.2072895,0.016013256 L 8.7185884,-4.0017078 C 6.9730900,-1.6296469 6.9831476,1.6157441 8.7185878,4.0337352 z "
         style="fill-rule:evenodd;fill:context-stroke;stroke-width:0.62500000;stroke-linejoin:round;"
         id="path7619" />
    </marker>
    <marker
       style="overflow:visible;"
       id="Arrow1Lend"
       refX="0.0"
       refY="0.0"
       orient="auto"
       inkscape:stockid="Arrow1Lend"
       inkscape:isstock="true">
      <path
         transform="scale(0.8) rotate(180) translate(12.5,0)"
         style="fill-rule:evenodd;fill:context-stroke;stroke:context-stroke;stroke-width:1.0pt;"
         d="M 0.0,0.0 L 5.0,-5.0 L -12.5,0.0 L 5.0,5.0 L 0.0,0.0 z "
         id="path7595" />
    </marker>
    <marker
       style="overflow:visible"
       id="Arrow1Lstart"
       refX="0.0"
       refY="0.0"
       orient="auto"
       inkscape:stockid="Arrow1Lstart"
       inkscape:isstock="true">
      <path
         transform="scale(0.8) translate(12.5,0)"
         style="fill-rule:evenodd;fill:context-stroke;stroke:context-stroke;stroke-width:1.0pt"
         d="M 0.0,0.0 L 5.0,-5.0 L -12.5,0.0 L 5.0,5.0 L 0.0,0.0 z "
         id="path7592" />
    </marker>
  </defs>
  <g
     inkscape:label="Layer 1"
     inkscape:groupmode="layer"
     id="layer1">
    <g
       aria-label="personal"
       id="text1262"
       style="font-size:10.5833px;line-height:1.25;stroke-width:0.264583;fill:#808080">
      <path
         d="m 152.32444,7.2503028 q 0,0.7027973 -0.20154,1.2867391 -0.20154,0.5787742 -0.56844,0.9818491 -0.34106,0.3824044 -0.80615,0.594277 -0.45992,0.206705 -0.97668,0.206705 -0.44958,0 -0.81648,-0.09818 -0.36174,-0.09819 -0.73897,-0.3048898 v 2.4184498 h -0.97152 V 4.4339462 h 0.97152 v 0.6046124 q 0.38757,-0.3255605 0.86816,-0.5426008 0.48575,-0.222208 1.03352,-0.222208 1.04386,0 1.62264,0.7906469 0.58394,0.7854793 0.58394,2.1859061 z m -1.00252,0.025838 q 0,-1.0438606 -0.35657,-1.5606233 -0.35656,-0.5167627 -1.09553,-0.5167627 -0.41858,0 -0.84233,0.1808669 -0.42374,0.180867 -0.81131,0.4754217 v 3.2711077 q 0.41341,0.1860346 0.70796,0.2532138 0.29972,0.067179 0.67696,0.067179 0.81132,0 1.26607,-0.5477684 0.45475,-0.5477685 0.45475,-1.6226348 z"
         id="path31"
         style="fill:#808080" />
      <path
         d="m 158.67028,7.4208345 h -4.25295 q 0,0.5322656 0.16019,0.9301728 0.1602,0.3927397 0.43925,0.6459534 0.26872,0.2480461 0.63562,0.3720691 0.37207,0.124023 0.81649,0.124023 0.5891,0 1.18338,-0.2325432 0.59945,-0.2377108 0.85266,-0.4650864 h 0.0517 v 1.0593635 q -0.49093,0.2067053 -1.00252,0.3462313 -0.5116,0.139526 -1.07487,0.139526 -1.4366,0 -2.24275,-0.7751444 -0.80615,-0.7803116 -0.80615,-2.2117442 0,-1.4159298 0.76998,-2.2479177 0.77514,-0.8319879 2.03604,-0.8319879 1.16789,0 1.79834,0.6821267 0.63561,0.6821268 0.63561,1.9378601 z m -0.94567,-0.7441382 q -0.005,-0.7648088 -0.38757,-1.1833866 -0.37724,-0.4185777 -1.15238,-0.4185777 -0.78032,0 -1.2454,0.4599187 -0.45992,0.4599188 -0.52193,1.1420456 z"
         id="path33"
         style="fill:#808080" />
      <path
         d="m 163.74489,5.4933097 h -0.0517 q -0.21704,-0.051676 -0.42375,-0.072347 -0.20154,-0.025838 -0.48059,-0.025838 -0.44958,0 -0.86816,0.2015375 -0.41858,0.1963698 -0.80615,0.511595 v 4.0979277 h -0.97151 V 4.4339462 h 0.97151 v 0.8526585 q 0.57878,-0.4650865 1.01802,-0.6562887 0.44442,-0.1963698 0.90434,-0.1963698 0.25321,0 0.3669,0.015503 0.11369,0.010335 0.34106,0.046509 z"
         id="path35"
         style="fill:#808080" />
      <path
         d="m 168.79367,8.5422095 q 0,0.7906469 -0.65629,1.2970743 -0.65112,0.5064272 -1.78283,0.5064272 -0.64079,0 -1.17822,-0.149861 -0.53227,-0.155029 -0.894,-0.3358957 V 8.7695851 h 0.0517 q 0.45992,0.346231 1.02319,0.5529361 0.56327,0.2015374 1.08004,0.2015374 0.64078,0 1.00252,-0.2067051 0.36173,-0.206705 0.36173,-0.6511209 0,-0.3410634 -0.19637,-0.5167627 -0.19637,-0.1756993 -0.75447,-0.2997224 -0.20671,-0.046509 -0.5426,-0.1085201 -0.33073,-0.062012 -0.60462,-0.1343583 -0.75964,-0.2015375 -1.08003,-0.5891095 -0.31522,-0.3927396 -0.31522,-0.9611786 0,-0.3565662 0.14469,-0.6717914 0.14986,-0.3152253 0.44958,-0.5632714 0.28939,-0.2428784 0.73381,-0.3824043 0.44958,-0.1446936 1.00251,-0.1446936 0.51677,0 1.04387,0.1291907 0.53226,0.124023 0.88366,0.30489 v 1.0386929 h -0.0517 q -0.37207,-0.2738842 -0.90433,-0.4599187 -0.53227,-0.1912022 -1.04386,-0.1912022 -0.53227,0 -0.89917,0.206705 -0.3669,0.2015375 -0.3669,0.6046124 0,0.3565662 0.22221,0.5374332 0.21704,0.1808669 0.70279,0.2945547 0.26872,0.062012 0.59945,0.124023 0.3359,0.062011 0.5581,0.1136878 0.67696,0.1550288 1.04386,0.5322656 0.36691,0.3824044 0.36691,1.0128548 z"
         id="path37"
         style="fill:#808080" />
      <path
         d="m 175.10851,7.3226496 q 0,1.4107621 -0.72347,2.2272471 -0.72347,0.8164853 -1.93786,0.8164853 -1.22473,0 -1.9482,-0.8164853 -0.7183,-0.816485 -0.7183,-2.2272471 0,-1.4107621 0.7183,-2.2272471 0.72347,-0.8216527 1.9482,-0.8216527 1.21439,0 1.93786,0.8216527 0.72347,0.816485 0.72347,2.2272471 z m -1.00252,0 q 0,-1.121375 -0.43925,-1.6639758 -0.43925,-0.5477685 -1.21956,-0.5477685 -0.79065,0 -1.2299,0.5477685 -0.43408,0.5426008 -0.43408,1.6639758 0,1.0852016 0.43925,1.6484729 0.43925,0.5581037 1.22473,0.5581037 0.77514,0 1.21439,-0.552936 0.44442,-0.5581037 0.44442,-1.6536406 z"
         id="path39"
         style="fill:#808080" />
      <path
         d="M 181.44402,10.206185 H 180.4725 V 6.9195747 q 0,-0.3979073 -0.0465,-0.7441382 -0.0465,-0.3513987 -0.17053,-0.5477685 -0.12919,-0.2170403 -0.37207,-0.3203928 -0.24288,-0.1085202 -0.63045,-0.1085202 -0.3979,0 -0.83199,0.1963698 -0.43408,0.1963698 -0.83198,0.5012598 v 4.3098004 h -0.97152 V 4.4339462 h 0.97152 V 5.074732 q 0.45475,-0.3772368 0.9405,-0.5891095 0.48576,-0.2118727 0.99736,-0.2118727 0.93534,0 1.42626,0.5632713 0.49093,0.5632713 0.49093,1.6226348 z"
         id="path41"
         style="fill:#808080" />
      <path
         d="m 187.8002,10.206185 h -0.96635 V 9.5912378 q -0.12919,0.08785 -0.3514,0.248046 -0.21704,0.1550288 -0.42374,0.2480462 -0.24288,0.118855 -0.55811,0.19637 -0.31522,0.08268 -0.73897,0.08268 -0.78031,0 -1.32291,-0.5167629 -0.5426,-0.5167627 -0.5426,-1.3177448 0,-0.6562886 0.27905,-1.0593635 0.28422,-0.4082425 0.80615,-0.6407857 0.5271,-0.2325432 1.26607,-0.3152253 0.73897,-0.082682 1.58646,-0.124023 V 6.2426156 q 0,-0.3307281 -0.11886,-0.5477684 -0.11368,-0.2170404 -0.33072,-0.3410634 -0.20671,-0.1188554 -0.4961,-0.1601964 -0.28938,-0.041341 -0.60461,-0.041341 -0.3824,0 -0.85266,0.1033525 -0.47025,0.098185 -0.97151,0.2893871 h -0.0517 V 4.5579693 q 0.28422,-0.077514 0.82166,-0.1705317 0.53743,-0.093017 1.05936,-0.093017 0.60978,0 1.05936,0.1033525 0.45475,0.098185 0.78548,0.3410634 0.32556,0.2377108 0.49609,0.6149476 0.17054,0.3772368 0.17054,0.9353404 z M 186.83385,8.785088 V 7.1779561 q -0.44442,0.025838 -1.04903,0.077514 -0.59944,0.051676 -0.95084,0.1498611 -0.41858,0.1188554 -0.67696,0.3720692 -0.25838,0.248046 -0.25838,0.6872943 0,0.4960922 0.29972,0.7493059 0.29972,0.2480461 0.91467,0.2480461 0.51159,0 0.93534,-0.1963698 0.42375,-0.2015375 0.78548,-0.4805893 z"
         id="path43"
         style="fill:#808080" />
      <path
         d="m 190.66306,10.206185 h -0.97151 V 2.1653581 h 0.97151 z"
         id="path45"
         style="fill:#808080" />
    </g>
    <g
       aria-label="visitor "
       id="text1262-1"
       style="font-size:10.5833px;line-height:1.25;text-align:center;text-anchor:middle;stroke-width:0.264583;fill:#808080">
      <path
         d="M 8.1269189,92.680466 5.7911516,98.452705 H 4.8144702 L 2.4942057,92.680466 h 1.0541959 l 1.7879989,4.59402 1.7724959,-4.59402 z"
         id="path48"
         style="fill:#808080" />
      <path
         d="M 10.442016,91.71412 H 9.3464788 v -1.007687 h 1.0955372 z m -0.06201,6.738585 H 9.4084903 v -5.772239 h 0.9715137 z"
         id="path50"
         style="fill:#808080" />
      <path
         d="m 16.436462,96.78873 q 0,0.790646 -0.656288,1.297074 -0.651121,0.506427 -1.782831,0.506427 -0.640786,0 -1.178219,-0.149861 -0.532266,-0.155029 -0.894,-0.335896 v -1.090369 h 0.05168 q 0.459918,0.346231 1.02319,0.552936 0.563271,0.201538 1.080034,0.201538 0.640785,0 1.002519,-0.206705 0.361734,-0.206705 0.361734,-0.651121 0,-0.341064 -0.19637,-0.516763 -0.19637,-0.175699 -0.754473,-0.299722 -0.206705,-0.04651 -0.542601,-0.108521 -0.330728,-0.06201 -0.604612,-0.134358 -0.759642,-0.201537 -1.080034,-0.589109 -0.315226,-0.39274 -0.315226,-0.961179 0,-0.356566 0.144694,-0.671791 0.149861,-0.315226 0.449583,-0.563272 0.289388,-0.242878 0.733803,-0.382404 0.449584,-0.144694 1.00252,-0.144694 0.516763,0 1.043861,0.129191 0.532265,0.124023 0.883664,0.30489 v 1.038693 h -0.05168 q -0.37207,-0.273884 -0.904335,-0.459919 -0.532266,-0.191202 -1.043861,-0.191202 -0.532265,0 -0.899167,0.206705 -0.366901,0.201538 -0.366901,0.604612 0,0.356567 0.222208,0.537434 0.21704,0.180867 0.702797,0.294554 0.268717,0.06201 0.599445,0.124023 0.335895,0.06201 0.558103,0.113688 0.676959,0.155029 1.043861,0.532266 0.366901,0.382404 0.366901,1.012855 z"
         id="path52"
         style="fill:#808080" />
      <path
         d="m 18.875583,91.71412 h -1.095537 v -1.007687 h 1.095537 z m -0.06201,6.738585 h -0.971514 v -5.772239 h 0.971514 z"
         id="path54"
         style="fill:#808080" />
      <path
         d="m 23.743486,98.401029 q -0.273884,0.07235 -0.599445,0.118856 -0.320393,0.04651 -0.573606,0.04651 -0.883665,0 -1.343583,-0.475421 -0.459919,-0.475422 -0.459919,-1.52445 v -3.069571 h -0.656289 v -0.816485 h 0.656289 v -1.658808 h 0.971514 v 1.658808 h 2.005039 v 0.816485 h -2.005039 v 2.630322 q 0,0.454751 0.02067,0.713133 0.02067,0.253214 0.144694,0.475421 0.113688,0.206706 0.310057,0.30489 0.201538,0.09302 0.60978,0.09302 0.237711,0 0.496092,-0.06718 0.258382,-0.07235 0.37207,-0.118856 h 0.05168 z"
         id="path56"
         style="fill:#808080" />
      <path
         d="m 29.841287,95.56917 q 0,1.410762 -0.723468,2.227247 -0.723468,0.816485 -1.93786,0.816485 -1.224728,0 -1.948195,-0.816485 -0.718301,-0.816485 -0.718301,-2.227247 0,-1.410762 0.718301,-2.227247 0.723467,-0.821653 1.948195,-0.821653 1.214392,0 1.93786,0.821653 0.723468,0.816485 0.723468,2.227247 z m -1.00252,0 q 0,-1.121375 -0.439248,-1.663976 -0.439248,-0.547769 -1.21956,-0.547769 -0.790647,0 -1.229895,0.547769 -0.434081,0.542601 -0.434081,1.663976 0,1.085201 0.439248,1.648473 0.439249,0.558103 1.224728,0.558103 0.775144,0 1.214392,-0.552936 0.444416,-0.558103 0.444416,-1.65364 z"
         id="path58"
         style="fill:#808080" />
      <path
         d="m 34.95207,93.73983 h -0.05168 q -0.21704,-0.05168 -0.423745,-0.07235 -0.201537,-0.02584 -0.480589,-0.02584 -0.449584,0 -0.868162,0.201537 -0.418577,0.19637 -0.806149,0.511595 v 4.097928 h -0.971514 v -5.772239 h 0.971514 v 0.852659 q 0.578774,-0.465087 1.018022,-0.656289 0.444416,-0.19637 0.904335,-0.19637 0.253214,0 0.366901,0.0155 0.113688,0.01033 0.341064,0.04651 z"
         id="path60"
         style="fill:#808080" />
    </g>
    <g
       aria-label="resident"
       id="text1262-1-8"
       style="font-size:10.5833px;line-height:1.25;text-align:center;text-anchor:middle;stroke-width:0.264583;fill:#808080"
       inkscape:transform-center-x="246.30928"
       inkscape:transform-center-y="4.7628866">
      <path
         d="m 298.57809,93.355201 h -0.0517 q -0.21704,-0.05168 -0.42374,-0.07235 -0.20154,-0.02584 -0.48059,-0.02584 -0.44959,0 -0.86816,0.201537 -0.41858,0.19637 -0.80615,0.511595 v 4.097928 h -0.97152 v -5.772239 h 0.97152 v 0.852658 q 0.57877,-0.465086 1.01802,-0.656288 0.44441,-0.19637 0.90433,-0.19637 0.25322,0 0.3669,0.0155 0.11369,0.01033 0.34107,0.04651 z"
         id="path63"
         style="fill:#808080" />
      <path
         d="m 304.33482,95.282726 h -4.25295 q 0,0.532266 0.16019,0.930173 0.1602,0.39274 0.43925,0.645953 0.26872,0.248047 0.63562,0.37207 0.37207,0.124023 0.81648,0.124023 0.58911,0 1.18339,-0.232544 0.59945,-0.23771 0.85266,-0.465086 h 0.0517 v 1.059363 q -0.49093,0.206706 -1.00252,0.346231 -0.5116,0.139526 -1.07487,0.139526 -1.4366,0 -2.24275,-0.775144 -0.80615,-0.780311 -0.80615,-2.211744 0,-1.41593 0.76998,-2.247918 0.77514,-0.831987 2.03604,-0.831987 1.16789,0 1.79834,0.682126 0.63561,0.682127 0.63561,1.93786 z m -0.94567,-0.744138 q -0.005,-0.764809 -0.38757,-1.183387 -0.37724,-0.418577 -1.15238,-0.418577 -0.78032,0 -1.2454,0.459918 -0.45992,0.459919 -0.52193,1.142046 z"
         id="path65"
         style="fill:#808080" />
      <path
         d="m 309.93136,96.404101 q 0,0.790647 -0.65628,1.297075 -0.65113,0.506427 -1.78284,0.506427 -0.64078,0 -1.17821,-0.149861 -0.53227,-0.155029 -0.894,-0.335896 v -1.090369 h 0.0517 q 0.45992,0.346231 1.02319,0.552936 0.56327,0.201537 1.08004,0.201537 0.64078,0 1.00252,-0.206705 0.36173,-0.206705 0.36173,-0.651121 0,-0.341063 -0.19637,-0.516762 -0.19637,-0.1757 -0.75447,-0.299723 -0.20671,-0.04651 -0.5426,-0.10852 -0.33073,-0.06201 -0.60462,-0.134358 -0.75964,-0.201538 -1.08003,-0.58911 -0.31523,-0.392739 -0.31523,-0.961178 0,-0.356566 0.1447,-0.671792 0.14986,-0.315225 0.44958,-0.563271 0.28939,-0.242878 0.7338,-0.382404 0.44959,-0.144694 1.00252,-0.144694 0.51677,0 1.04386,0.129191 0.53227,0.124023 0.88367,0.30489 v 1.038693 h -0.0517 q -0.37207,-0.273885 -0.90433,-0.459919 -0.53227,-0.191202 -1.04386,-0.191202 -0.53227,0 -0.89917,0.206705 -0.3669,0.201537 -0.3669,0.604612 0,0.356566 0.22221,0.537433 0.21704,0.180867 0.70279,0.294555 0.26872,0.06201 0.59945,0.124023 0.33589,0.06201 0.5581,0.113688 0.67696,0.155029 1.04386,0.532265 0.3669,0.382405 0.3669,1.012855 z"
         id="path67"
         style="fill:#808080" />
      <path
         d="m 312.37048,91.329492 h -1.09553 v -1.007687 h 1.09553 z m -0.062,6.738585 h -0.97151 v -5.772239 h 0.97151 z"
         id="path69"
         style="fill:#808080" />
      <path
         d="m 318.92304,98.068077 h -0.97152 v -0.604612 q -0.41858,0.361734 -0.87333,0.563271 -0.45475,0.201538 -0.98701,0.201538 -1.03353,0 -1.64331,-0.795815 -0.60461,-0.795815 -0.60461,-2.206577 0,-0.733803 0.2067,-1.307409 0.21188,-0.573607 0.56844,-0.976682 0.3514,-0.392739 0.81649,-0.599444 0.47025,-0.206705 0.97151,-0.206705 0.45475,0 0.80615,0.09818 0.3514,0.09302 0.73897,0.294555 V 90.02725 h 0.97152 z m -0.97152,-1.421097 v -3.312449 q -0.39274,-0.175699 -0.7028,-0.242878 -0.31005,-0.06718 -0.67696,-0.06718 -0.81648,0 -1.27123,0.568439 -0.45475,0.568439 -0.45475,1.6123 0,1.028358 0.3514,1.565791 0.35139,0.532265 1.12654,0.532265 0.41341,0 0.83715,-0.180867 0.42375,-0.186034 0.79065,-0.475421 z"
         id="path71"
         style="fill:#808080" />
      <path
         d="m 325.66679,95.282726 h -4.25296 q 0,0.532266 0.1602,0.930173 0.16019,0.39274 0.43925,0.645953 0.26871,0.248047 0.63561,0.37207 0.37207,0.124023 0.81649,0.124023 0.58911,0 1.18338,-0.232544 0.59945,-0.23771 0.85266,-0.465086 h 0.0517 v 1.059363 q -0.49093,0.206706 -1.00252,0.346231 -0.5116,0.139526 -1.07487,0.139526 -1.4366,0 -2.24275,-0.775144 -0.80615,-0.780311 -0.80615,-2.211744 0,-1.41593 0.76998,-2.247918 0.77514,-0.831987 2.03605,-0.831987 1.16788,0 1.79833,0.682126 0.63562,0.682127 0.63562,1.93786 z m -0.94568,-0.744138 q -0.005,-0.764809 -0.38757,-1.183387 -0.37724,-0.418577 -1.15238,-0.418577 -0.78031,0 -1.2454,0.459918 -0.45992,0.459919 -0.52193,1.142046 z"
         id="path73"
         style="fill:#808080" />
      <path
         d="m 331.96613,98.068077 h -0.97152 v -3.286611 q 0,-0.397907 -0.0465,-0.744138 -0.0465,-0.351398 -0.17053,-0.547768 -0.12919,-0.217041 -0.37207,-0.320393 -0.24288,-0.10852 -0.63045,-0.10852 -0.39791,0 -0.83199,0.19637 -0.43408,0.196369 -0.83198,0.501259 v 4.309801 h -0.97152 v -5.772239 h 0.97152 v 0.640786 q 0.45475,-0.377237 0.9405,-0.58911 0.48576,-0.211872 0.99736,-0.211872 0.93534,0 1.42626,0.563271 0.49093,0.563271 0.49093,1.622635 z"
         id="path75"
         style="fill:#808080" />
      <path
         d="m 336.83403,98.016401 q -0.27389,0.07235 -0.59945,0.118855 -0.32039,0.04651 -0.5736,0.04651 -0.88367,0 -1.34359,-0.475422 -0.45991,-0.475421 -0.45991,-1.52445 v -3.06957 h -0.65629 v -0.816485 h 0.65629 V 90.63703 h 0.97151 v 1.658808 h 2.00504 v 0.816485 h -2.00504 v 2.630322 q 0,0.454751 0.0207,0.713133 0.0207,0.253213 0.14469,0.475421 0.11369,0.206705 0.31006,0.30489 0.20154,0.09302 0.60978,0.09302 0.23771,0 0.49609,-0.06718 0.25838,-0.07235 0.37207,-0.118855 h 0.0517 z"
         id="path77"
         style="fill:#808080" />
    </g>
    <g
       aria-label="institutional/professional"
       id="text1262-0"
       style="font-size:10.5833px;line-height:1.25;stroke-width:0.264583;fill:#808080">
      <path
         d="m 106.57177,179.92864 h -1.09554 v -1.00769 h 1.09554 z m -0.062,6.73858 h -0.97151 v -5.77224 h 0.97151 z"
         id="path80"
         style="fill:#808080" />
      <path
         d="m 113.26902,186.66722 h -0.97152 v -3.28661 q 0,-0.39791 -0.0465,-0.74414 -0.0465,-0.3514 -0.17053,-0.54777 -0.12919,-0.21704 -0.37207,-0.32039 -0.24288,-0.10852 -0.63045,-0.10852 -0.39791,0 -0.83199,0.19637 -0.43408,0.19637 -0.83198,0.50126 v 4.3098 h -0.97152 v -5.77224 h 0.97152 v 0.64079 q 0.45475,-0.37724 0.9405,-0.58911 0.48576,-0.21187 0.99736,-0.21187 0.93534,0 1.42626,0.56327 0.49093,0.56327 0.49093,1.62263 z"
         id="path82"
         style="fill:#808080" />
      <path
         d="m 119.26346,185.00325 q 0,0.79064 -0.65629,1.29707 -0.65112,0.50643 -1.78283,0.50643 -0.64078,0 -1.17822,-0.14986 -0.53226,-0.15503 -0.894,-0.3359 v -1.09037 h 0.0517 q 0.45992,0.34623 1.02319,0.55294 0.56327,0.20153 1.08003,0.20153 0.64079,0 1.00252,-0.2067 0.36174,-0.20671 0.36174,-0.65112 0,-0.34107 -0.19637,-0.51676 -0.19637,-0.1757 -0.75448,-0.29973 -0.2067,-0.0465 -0.5426,-0.10852 -0.33072,-0.062 -0.60461,-0.13436 -0.75964,-0.20153 -1.08003,-0.5891 -0.31523,-0.39274 -0.31523,-0.96118 0,-0.35657 0.1447,-0.67179 0.14986,-0.31523 0.44958,-0.56328 0.28939,-0.24287 0.7338,-0.3824 0.44959,-0.14469 1.00252,-0.14469 0.51676,0 1.04386,0.12919 0.53227,0.12402 0.88367,0.30489 v 1.03869 h -0.0517 q -0.37207,-0.27388 -0.90433,-0.45992 -0.53227,-0.1912 -1.04386,-0.1912 -0.53227,0 -0.89917,0.2067 -0.3669,0.20154 -0.3669,0.60462 0,0.35656 0.2222,0.53743 0.21704,0.18087 0.7028,0.29455 0.26872,0.062 0.59945,0.12403 0.33589,0.062 0.5581,0.11368 0.67696,0.15503 1.04386,0.53227 0.3669,0.3824 0.3669,1.01286 z"
         id="path84"
         style="fill:#808080" />
      <path
         d="m 123.65594,186.61554 q -0.27388,0.0724 -0.59944,0.11886 -0.32039,0.0465 -0.57361,0.0465 -0.88366,0 -1.34358,-0.47542 -0.45992,-0.47542 -0.45992,-1.52445 v -3.06957 h -0.65629 v -0.81649 h 0.65629 v -1.65881 h 0.97152 v 1.65881 h 2.00503 v 0.81649 h -2.00503 v 2.63032 q 0,0.45475 0.0207,0.71313 0.0207,0.25322 0.14469,0.47542 0.11369,0.20671 0.31006,0.30489 0.20153,0.093 0.60978,0.093 0.23771,0 0.49609,-0.0672 0.25838,-0.0724 0.37207,-0.11885 h 0.0517 z"
         id="path86"
         style="fill:#808080" />
      <path
         d="m 125.87802,179.92864 h -1.09553 v -1.00769 h 1.09553 z m -0.062,6.73858 h -0.97151 v -5.77224 h 0.97151 z"
         id="path88"
         style="fill:#808080" />
      <path
         d="m 130.74593,186.61554 q -0.27389,0.0724 -0.59945,0.11886 -0.32039,0.0465 -0.5736,0.0465 -0.88367,0 -1.34359,-0.47542 -0.45991,-0.47542 -0.45991,-1.52445 v -3.06957 h -0.65629 v -0.81649 h 0.65629 v -1.65881 h 0.97151 v 1.65881 h 2.00504 v 0.81649 h -2.00504 v 2.63032 q 0,0.45475 0.0207,0.71313 0.0207,0.25322 0.14469,0.47542 0.11369,0.20671 0.31006,0.30489 0.20154,0.093 0.60978,0.093 0.23771,0 0.49609,-0.0672 0.25838,-0.0724 0.37207,-0.11885 h 0.0517 z"
         id="path90"
         style="fill:#808080" />
      <path
         d="m 136.70937,186.66722 h -0.97151 v -0.64078 q -0.49093,0.38757 -0.94051,0.59427 -0.44959,0.20671 -0.99219,0.20671 -0.9095,0 -1.41593,-0.55294 -0.50642,-0.5581 -0.50642,-1.63297 v -3.74653 h 0.97151 v 3.28661 q 0,0.43925 0.0413,0.75448 0.0413,0.31005 0.1757,0.53226 0.13953,0.22738 0.36173,0.33073 0.22221,0.10335 0.64596,0.10335 0.37723,0 0.82165,-0.19637 0.44958,-0.19637 0.83716,-0.50126 v -4.3098 h 0.97151 z"
         id="path92"
         style="fill:#808080" />
      <path
         d="m 141.61862,186.61554 q -0.27389,0.0724 -0.59945,0.11886 -0.32039,0.0465 -0.5736,0.0465 -0.88367,0 -1.34359,-0.47542 -0.45992,-0.47542 -0.45992,-1.52445 v -3.06957 h -0.65628 v -0.81649 h 0.65628 v -1.65881 h 0.97152 v 1.65881 h 2.00504 v 0.81649 h -2.00504 v 2.63032 q 0,0.45475 0.0207,0.71313 0.0207,0.25322 0.14469,0.47542 0.11369,0.20671 0.31006,0.30489 0.20154,0.093 0.60978,0.093 0.23771,0 0.49609,-0.0672 0.25838,-0.0724 0.37207,-0.11885 h 0.0517 z"
         id="path94"
         style="fill:#808080" />
      <path
         d="m 143.8407,179.92864 h -1.09554 v -1.00769 h 1.09554 z m -0.062,6.73858 h -0.97151 v -5.77224 h 0.97151 z"
         id="path96"
         style="fill:#808080" />
      <path
         d="m 150.63096,183.78369 q 0,1.41076 -0.72347,2.22724 -0.72347,0.81649 -1.93786,0.81649 -1.22473,0 -1.9482,-0.81649 -0.7183,-0.81648 -0.7183,-2.22724 0,-1.41077 0.7183,-2.22725 0.72347,-0.82165 1.9482,-0.82165 1.21439,0 1.93786,0.82165 0.72347,0.81648 0.72347,2.22725 z m -1.00252,0 q 0,-1.12138 -0.43925,-1.66398 -0.43925,-0.54777 -1.21956,-0.54777 -0.79065,0 -1.2299,0.54777 -0.43408,0.5426 -0.43408,1.66398 0,1.0852 0.43925,1.64847 0.43925,0.5581 1.22473,0.5581 0.77514,0 1.21439,-0.55293 0.44442,-0.55811 0.44442,-1.65364 z"
         id="path98"
         style="fill:#808080" />
      <path
         d="m 156.96647,186.66722 h -0.97152 v -3.28661 q 0,-0.39791 -0.0465,-0.74414 -0.0465,-0.3514 -0.17053,-0.54777 -0.12919,-0.21704 -0.37207,-0.32039 -0.24288,-0.10852 -0.63045,-0.10852 -0.39791,0 -0.83199,0.19637 -0.43408,0.19637 -0.83198,0.50126 v 4.3098 h -0.97152 v -5.77224 h 0.97152 v 0.64079 q 0.45475,-0.37724 0.9405,-0.58911 0.48576,-0.21187 0.99736,-0.21187 0.93534,0 1.42626,0.56327 0.49093,0.56327 0.49093,1.62263 z"
         id="path100"
         style="fill:#808080" />
      <path
         d="m 163.32265,186.66722 h -0.96635 v -0.61495 q -0.12919,0.0879 -0.3514,0.24805 -0.21704,0.15503 -0.42374,0.24805 -0.24288,0.11885 -0.55811,0.19637 -0.31522,0.0827 -0.73897,0.0827 -0.78031,0 -1.32291,-0.51677 -0.5426,-0.51676 -0.5426,-1.31774 0,-0.65629 0.27905,-1.05936 0.28422,-0.40825 0.80615,-0.64079 0.5271,-0.23254 1.26607,-0.31522 0.73897,-0.0827 1.58646,-0.12403 v -0.14986 q 0,-0.33073 -0.11885,-0.54777 -0.11369,-0.21704 -0.33073,-0.34106 -0.20671,-0.11886 -0.49609,-0.1602 -0.28939,-0.0413 -0.60462,-0.0413 -0.3824,0 -0.85265,0.10335 -0.47026,0.0982 -0.97152,0.28939 h -0.0517 v -0.98701 q 0.28422,-0.0775 0.82165,-0.17054 0.53743,-0.093 1.05936,-0.093 0.60978,0 1.05937,0.10335 0.45475,0.0982 0.78547,0.34106 0.32557,0.23771 0.4961,0.61495 0.17053,0.37724 0.17053,0.93534 z m -0.96635,-1.4211 v -1.60713 q -0.44441,0.0258 -1.04903,0.0775 -0.59944,0.0517 -0.95084,0.14986 -0.41858,0.11885 -0.67696,0.37207 -0.25838,0.24804 -0.25838,0.68729 0,0.49609 0.29972,0.74931 0.29973,0.24804 0.91467,0.24804 0.5116,0 0.93534,-0.19637 0.42375,-0.20153 0.78548,-0.48059 z"
         id="path102"
         style="fill:#808080" />
      <path
         d="M 166.18551,186.66722 H 165.214 v -8.04083 h 0.97151 z"
         id="path104"
         style="fill:#808080" />
      <path
         d="m 171.60635,178.62639 -3.70519,9.61179 h -0.894 l 3.68969,-9.61179 z"
         id="path106"
         style="fill:#808080" />
      <path
         d="m 178.01421,183.71134 q 0,0.7028 -0.20154,1.28674 -0.20153,0.57877 -0.56843,0.98185 -0.34107,0.3824 -0.80615,0.59427 -0.45992,0.20671 -0.97669,0.20671 -0.44958,0 -0.81648,-0.0982 -0.36173,-0.0982 -0.73897,-0.30489 v 2.41845 h -0.97151 v -7.9013 h 0.97151 v 0.60461 q 0.38757,-0.32556 0.86816,-0.5426 0.48576,-0.2222 1.03353,-0.2222 1.04386,0 1.62263,0.79064 0.58394,0.78548 0.58394,2.18591 z m -1.00252,0.0258 q 0,-1.04386 -0.35656,-1.56063 -0.35657,-0.51676 -1.09554,-0.51676 -0.41858,0 -0.84232,0.18087 -0.42375,0.18086 -0.81132,0.47542 v 3.27111 q 0.41341,0.18603 0.70796,0.25321 0.29973,0.0672 0.67696,0.0672 0.81132,0 1.26607,-0.54777 0.45475,-0.54777 0.45475,-1.62263 z"
         id="path108"
         style="fill:#808080" />
      <path
         d="m 183.13016,181.95435 h -0.0517 q -0.21704,-0.0517 -0.42374,-0.0724 -0.20154,-0.0258 -0.48059,-0.0258 -0.44959,0 -0.86816,0.20154 -0.41858,0.19637 -0.80615,0.51159 v 4.09793 h -0.97152 v -5.77224 h 0.97152 v 0.85266 q 0.57877,-0.46509 1.01802,-0.65629 0.44441,-0.19637 0.90433,-0.19637 0.25322,0 0.3669,0.0155 0.11369,0.0103 0.34107,0.0465 z"
         id="path110"
         style="fill:#808080" />
      <path
         d="m 188.97474,183.78369 q 0,1.41076 -0.72346,2.22724 -0.72347,0.81649 -1.93786,0.81649 -1.22473,0 -1.9482,-0.81649 -0.7183,-0.81648 -0.7183,-2.22724 0,-1.41077 0.7183,-2.22725 0.72347,-0.82165 1.9482,-0.82165 1.21439,0 1.93786,0.82165 0.72346,0.81648 0.72346,2.22725 z m -1.00252,0 q 0,-1.12138 -0.43924,-1.66398 -0.43925,-0.54777 -1.21956,-0.54777 -0.79065,0 -1.2299,0.54777 -0.43408,0.5426 -0.43408,1.66398 0,1.0852 0.43925,1.64847 0.43925,0.5581 1.22473,0.5581 0.77514,0 1.21439,-0.55293 0.44441,-0.55811 0.44441,-1.65364 z"
         id="path112"
         style="fill:#808080" />
      <path
         d="m 193.58943,179.5669 h -0.0517 q -0.1602,-0.0465 -0.41858,-0.093 -0.25838,-0.0517 -0.45475,-0.0517 -0.62528,0 -0.9095,0.27905 -0.27906,0.27388 -0.27906,0.99735 v 0.19637 h 1.75183 v 0.81649 h -1.72082 v 4.95575 h -0.97151 v -4.95575 h -0.65629 v -0.81649 h 0.65629 v -0.1912 q 0,-1.02836 0.51159,-1.57613 0.5116,-0.55293 1.47794,-0.55293 0.32556,0 0.58394,0.031 0.26355,0.031 0.48059,0.0724 z"
         id="path114"
         style="fill:#808080" />
      <path
         d="m 199.03612,183.88187 h -4.25296 q 0,0.53227 0.1602,0.93017 0.16019,0.39274 0.43924,0.64596 0.26872,0.24804 0.63562,0.37207 0.37207,0.12402 0.81649,0.12402 0.58911,0 1.18338,-0.23254 0.59945,-0.23772 0.85266,-0.46509 h 0.0517 v 1.05936 q -0.49093,0.20671 -1.00252,0.34623 -0.5116,0.13953 -1.07487,0.13953 -1.4366,0 -2.24275,-0.77514 -0.80615,-0.78032 -0.80615,-2.21175 0,-1.41593 0.76998,-2.24792 0.77514,-0.83198 2.03604,-0.83198 1.16789,0 1.79834,0.68212 0.63562,0.68213 0.63562,1.93786 z m -0.94568,-0.74414 q -0.005,-0.76481 -0.38757,-1.18338 -0.37724,-0.41858 -1.15238,-0.41858 -0.78031,0 -1.2454,0.45992 -0.45992,0.45992 -0.52193,1.14204 z"
         id="path116"
         style="fill:#808080" />
      <path
         d="m 204.63266,185.00325 q 0,0.79064 -0.65629,1.29707 -0.65112,0.50643 -1.78283,0.50643 -0.64079,0 -1.17822,-0.14986 -0.53227,-0.15503 -0.894,-0.3359 v -1.09037 h 0.0517 q 0.45992,0.34623 1.02319,0.55294 0.56328,0.20153 1.08004,0.20153 0.64078,0 1.00252,-0.2067 0.36173,-0.20671 0.36173,-0.65112 0,-0.34107 -0.19637,-0.51676 -0.19637,-0.1757 -0.75447,-0.29973 -0.20671,-0.0465 -0.5426,-0.10852 -0.33073,-0.062 -0.60461,-0.13436 -0.75965,-0.20153 -1.08004,-0.5891 -0.31522,-0.39274 -0.31522,-0.96118 0,-0.35657 0.14469,-0.67179 0.14986,-0.31523 0.44958,-0.56328 0.28939,-0.24287 0.73381,-0.3824 0.44958,-0.14469 1.00252,-0.14469 0.51676,0 1.04386,0.12919 0.53226,0.12402 0.88366,0.30489 v 1.03869 h -0.0517 q -0.37206,-0.27388 -0.90433,-0.45992 -0.53227,-0.1912 -1.04386,-0.1912 -0.53227,0 -0.89917,0.2067 -0.3669,0.20154 -0.3669,0.60462 0,0.35656 0.22221,0.53743 0.21704,0.18087 0.7028,0.29455 0.26871,0.062 0.59944,0.12403 0.3359,0.062 0.5581,0.11368 0.67696,0.15503 1.04386,0.53227 0.36691,0.3824 0.36691,1.01286 z"
         id="path118"
         style="fill:#808080" />
      <path
         d="m 210.15168,185.00325 q 0,0.79064 -0.65628,1.29707 -0.65113,0.50643 -1.78284,0.50643 -0.64078,0 -1.17821,-0.14986 -0.53227,-0.15503 -0.894,-0.3359 v -1.09037 h 0.0517 q 0.45992,0.34623 1.02319,0.55294 0.56327,0.20153 1.08004,0.20153 0.64078,0 1.00252,-0.2067 0.36173,-0.20671 0.36173,-0.65112 0,-0.34107 -0.19637,-0.51676 -0.19637,-0.1757 -0.75447,-0.29973 -0.20671,-0.0465 -0.5426,-0.10852 -0.33073,-0.062 -0.60462,-0.13436 -0.75964,-0.20153 -1.08003,-0.5891 -0.31523,-0.39274 -0.31523,-0.96118 0,-0.35657 0.1447,-0.67179 0.14986,-0.31523 0.44958,-0.56328 0.28939,-0.24287 0.7338,-0.3824 0.44959,-0.14469 1.00252,-0.14469 0.51677,0 1.04386,0.12919 0.53227,0.12402 0.88367,0.30489 v 1.03869 h -0.0517 q -0.37207,-0.27388 -0.90433,-0.45992 -0.53227,-0.1912 -1.04386,-0.1912 -0.53227,0 -0.89917,0.2067 -0.3669,0.20154 -0.3669,0.60462 0,0.35656 0.22221,0.53743 0.21704,0.18087 0.70279,0.29455 0.26872,0.062 0.59945,0.12403 0.33589,0.062 0.5581,0.11368 0.67696,0.15503 1.04386,0.53227 0.3669,0.3824 0.3669,1.01286 z"
         id="path120"
         style="fill:#808080" />
      <path
         d="m 212.5908,179.92864 h -1.09554 v -1.00769 h 1.09554 z m -0.062,6.73858 h -0.97152 v -5.77224 h 0.97152 z"
         id="path122"
         style="fill:#808080" />
      <path
         d="m 219.38106,183.78369 q 0,1.41076 -0.72347,2.22724 -0.72346,0.81649 -1.93786,0.81649 -1.22472,0 -1.94819,-0.81649 -0.7183,-0.81648 -0.7183,-2.22724 0,-1.41077 0.7183,-2.22725 0.72347,-0.82165 1.94819,-0.82165 1.2144,0 1.93786,0.82165 0.72347,0.81648 0.72347,2.22725 z m -1.00252,0 q 0,-1.12138 -0.43925,-1.66398 -0.43924,-0.54777 -1.21956,-0.54777 -0.79064,0 -1.22989,0.54777 -0.43408,0.5426 -0.43408,1.66398 0,1.0852 0.43925,1.64847 0.43924,0.5581 1.22472,0.5581 0.77515,0 1.2144,-0.55293 0.44441,-0.55811 0.44441,-1.65364 z"
         id="path124"
         style="fill:#808080" />
      <path
         d="m 225.71657,186.66722 h -0.97151 v -3.28661 q 0,-0.39791 -0.0465,-0.74414 -0.0465,-0.3514 -0.17053,-0.54777 -0.12919,-0.21704 -0.37207,-0.32039 -0.24288,-0.10852 -0.63045,-0.10852 -0.39791,0 -0.83199,0.19637 -0.43408,0.19637 -0.83199,0.50126 v 4.3098 h -0.97151 v -5.77224 h 0.97151 v 0.64079 q 0.45475,-0.37724 0.94051,-0.58911 0.48576,-0.21187 0.99735,-0.21187 0.93534,0 1.42627,0.56327 0.49092,0.56327 0.49092,1.62263 z"
         id="path126"
         style="fill:#808080" />
      <path
         d="m 232.07275,186.66722 h -0.96634 v -0.61495 q -0.1292,0.0879 -0.3514,0.24805 -0.21704,0.15503 -0.42375,0.24805 -0.24288,0.11885 -0.5581,0.19637 -0.31523,0.0827 -0.73897,0.0827 -0.78031,0 -1.32292,-0.51677 -0.5426,-0.51676 -0.5426,-1.31774 0,-0.65629 0.27906,-1.05936 0.28422,-0.40825 0.80615,-0.64079 0.52709,-0.23254 1.26606,-0.31522 0.73897,-0.0827 1.58647,-0.12403 v -0.14986 q 0,-0.33073 -0.11886,-0.54777 -0.11369,-0.21704 -0.33073,-0.34106 -0.2067,-0.11886 -0.49609,-0.1602 -0.28939,-0.0413 -0.60461,-0.0413 -0.38241,0 -0.85266,0.10335 -0.47025,0.0982 -0.97151,0.28939 h -0.0517 v -0.98701 q 0.28422,-0.0775 0.82165,-0.17054 0.53743,-0.093 1.05937,-0.093 0.60978,0 1.05936,0.10335 0.45475,0.0982 0.78548,0.34106 0.32556,0.23771 0.49609,0.61495 0.17053,0.37724 0.17053,0.93534 z m -0.96634,-1.4211 v -1.60713 q -0.44442,0.0258 -1.04903,0.0775 -0.59945,0.0517 -0.95085,0.14986 -0.41857,0.11885 -0.67696,0.37207 -0.25838,0.24804 -0.25838,0.68729 0,0.49609 0.29973,0.74931 0.29972,0.24804 0.91467,0.24804 0.51159,0 0.93534,-0.19637 0.42374,-0.20153 0.78548,-0.48059 z"
         id="path128"
         style="fill:#808080" />
      <path
         d="m 234.93562,186.66722 h -0.97152 v -8.04083 h 0.97152 z"
         id="path130"
         style="fill:#808080" />
    </g>
    <path
       style="fill:#808080;stroke:#818181;stroke-width:1.31606;stroke-linecap:butt;stroke-linejoin:miter;stroke-miterlimit:4;stroke-dasharray:none;stroke-opacity:1;marker-start:url(#marker1317);marker-end:url(#Arrow2Send)"
       d="M 40.066898,95.257733 H 288.8584"
       id="path6563" />
    <path
       style="fill:#808080;stroke:#818181;stroke-width:1.5;stroke-linecap:butt;stroke-linejoin:miter;stroke-miterlimit:4;stroke-dasharray:none;stroke-opacity:1;marker-start:url(#Arrow2Sstart);marker-end:url(#marker7931)"
       d="M 169.08247,17.874124 V 171.54142"
       id="path7927" />
  </g>
</svg>
